<?xml version="1.0" encoding="UTF-8" standalone="no"?><!DOCTYPE svg PUBLIC "-//W3C//DTD SVG 1.1//EN" "http://www.w3.org/Graphics/SVG/1.1/DTD/svg11.dtd"><svg width="100%" height="100%" viewBox="0 0 736 250" version="1.1" xmlns="http://www.w3.org/2000/svg" xmlns:xlink="http://www.w3.org/1999/xlink" xml:space="preserve" xmlns:serif="http://www.serif.com/" style="fill-rule:evenodd;clip-rule:evenodd;stroke-linejoin:round;stroke-miterlimit:2;"><g><path d="M321.006,113.8l-33.446,-108.878l-47.679,-0l58.353,167.231l46.611,0l58.353,-167.231l-49.101,-0l-33.091,108.878Z" style="fill:#fff;fill-rule:nonzero;"/><path d="M494.005,4.922c-8.183,-2.847 -16.723,-4.27 -25.974,-4.27c-40.206,0 -72.585,28.465 -72.585,70.451c-0,27.041 13.876,48.39 34.513,59.776l80.414,50.525c-3.914,13.165 -14.944,25.974 -38.428,25.974c-27.397,0 -39.851,-19.569 -39.851,-35.225l-43.764,0c0.355,46.256 34.869,76.855 83.615,76.855c53.016,0 84.327,-38.072 84.683,-85.394l-50.525,-32.735c20.637,-11.386 34.158,-32.735 34.158,-59.776c-0,-10.675 -2.135,-20.637 -6.049,-29.533l24.195,0l0,-36.648l-64.402,-0Zm-26.685,35.937c17.434,-0 29.888,12.453 29.888,30.244c-0,17.79 -12.454,28.82 -29.888,28.82c-16.368,0 -28.821,-11.741 -28.821,-28.82c0.356,-17.791 12.809,-30.244 28.821,-30.244Z" style="fill:#fff;fill-rule:nonzero;"/><path d="M734.22,89.249c0,-49.458 -35.937,-88.597 -89.309,-88.597c-52.304,0 -89.664,37.005 -89.664,88.597c0,49.814 35.937,87.174 89.664,87.174c32.379,-0 59.777,-14.588 75.077,-35.581l-32.735,-23.484c-8.184,11.03 -24.907,19.57 -41.63,19.57c-21.349,-0 -38.783,-12.454 -43.409,-32.023l131.294,-0c0.356,-2.847 0.712,-10.675 0.712,-15.656Zm-132.006,-18.858c4.982,-17.79 20.993,-31.311 42.697,-31.311c21.705,-0 38.428,13.165 42.342,31.311l-85.039,0Z" style="fill:#fff;fill-rule:nonzero;"/><g><g id="Layer-1" serif:id="Layer 1"><path d="M107.201,172.146l-32.843,0c-9.082,-0.464 -16.77,-6.317 -19.86,-14.446c-0.185,-0.441 -0.325,-0.882 -0.464,-1.347l-42.042,-120.537c-0.232,-0.557 -0.418,-1.115 -0.603,-1.695l-10.197,-29.194l31.705,-0c9.663,-0 17.908,6.085 21.09,14.655c0.163,0.441 0.326,0.882 0.465,1.347l41.786,119.771l0.418,1.231l0.558,1.602l9.987,28.613Z" style="fill:#f15a3b;fill-rule:nonzero;"/><path d="M186.769,172.146l-32.844,0c-9.082,-0.464 -16.77,-6.317 -19.859,-14.446c-0.186,-0.441 -0.325,-0.882 -0.465,-1.347l-42.041,-120.537c-0.232,-0.557 -0.418,-1.115 -0.604,-1.695l-10.197,-29.194l31.705,-0c9.663,-0 17.909,6.085 21.091,14.655c0.162,0.441 0.325,0.882 0.464,1.347l41.786,119.771l0.418,1.231l0.558,1.602l9.988,28.613Z" style="fill:#f15a3b;fill-rule:nonzero;"/><path d="M266.335,172.146l-32.844,0c-9.081,-0.464 -16.77,-6.317 -19.859,-14.446c-0.186,-0.441 -0.325,-0.882 -0.464,-1.347l-42.042,-120.537c-0.232,-0.557 -0.418,-1.115 -0.604,-1.695l-10.197,-29.194l31.706,-0c9.662,-0 17.908,6.085 21.09,14.655c0.163,0.441 0.325,0.882 0.465,1.347l41.786,119.771l0.418,1.231l0.557,1.602l9.988,28.613Z" style="fill:#f15a3b;fill-rule:nonzero;"/></g></g></g></svg>