<svg width="84" height="84" viewBox="0 0 84 84" fill="none" xmlns="http://www.w3.org/2000/svg">
<g clip-path="url(#clip0)">
<path d="M78.2546 58.6146L49.8109 65.7744C49.5667 64.9374 49.1162 64.1466 48.4587 63.489L39.3968 54.4272C38.2727 53.3037 36.7788 52.6853 35.1895 52.6853H17.1138C16.7728 49.5694 14.126 47.136 10.9191 47.136H6.23181C2.79547 47.136 0 49.9308 0 53.3678V65.9096C0 66.5908 0.55307 67.1433 1.23367 67.1433C1.91492 67.1433 2.46799 66.5908 2.46799 65.9096V53.3678C2.46799 51.2914 4.15732 49.604 6.23181 49.604H10.9191C12.7603 49.604 14.2984 50.9344 14.6208 52.6853C14.7124 53.1781 14.6836 51.7022 14.6836 75.2592C14.6836 77.3357 12.9943 79.0237 10.9191 79.0237H6.23181C4.15732 79.0237 2.46799 77.3357 2.46799 75.2592V70.8449C2.46799 70.1643 1.91492 69.6113 1.23367 69.6113C0.55307 69.6113 0 70.1643 0 70.8449V75.2592C0 78.6962 2.79547 81.4917 6.23181 81.4917H10.9191C14.3561 81.4917 17.1516 78.6962 17.1516 75.2592V73.0752C26.2391 74.6446 24.2838 74.073 37.8279 80.6996C40.0287 81.7769 42.1512 83.8219 46.6418 83.8219C49.0361 83.8219 51.3695 83.1483 53.3959 81.873L76.8658 69.9727C77.474 69.6645 77.7169 68.9217 77.4087 68.3141C77.1004 67.7066 76.3576 67.4637 75.7501 67.7713C75.6655 67.8143 52.2026 79.7069 52.1232 79.7575C50.4813 80.8021 48.5862 81.3539 46.6418 81.3539C42.8985 81.3539 41.2726 79.6383 38.9123 78.4828C25.1407 71.7454 27.0979 72.2888 17.1516 70.5713V55.1526H35.1901C36.1213 55.1526 36.9948 55.5147 37.653 56.1729L46.713 65.2328C48.4978 67.0177 47.2974 70.0124 44.8262 70.0124C44.0886 70.0124 43.3945 69.7247 42.8716 69.203L34.7095 61.0377C34.2275 60.5558 33.4457 60.5558 32.9637 61.0377C32.4818 61.5197 32.4818 62.3015 32.9637 62.7834L41.1271 70.9488C44.07 73.882 49.1361 72.3849 49.9288 68.2898C80.422 60.6135 78.7385 61.0121 79.0448 61.0121C81.5397 61.0121 82.3844 64.4074 80.1529 65.5392C79.5447 65.8474 79.3018 66.5902 79.61 67.1978C79.9177 67.8059 80.6604 68.0488 81.2686 67.7406C83.0861 66.819 83.9154 65.0419 83.9154 63.4224C83.9154 60.0751 80.6399 58.0141 78.2546 58.6146Z" fill="#F05A3A"/>
<path d="M4.3855 72.3837C4.3855 74.694 6.26517 76.5737 8.5755 76.5737C10.8858 76.5737 12.7655 74.694 12.7655 72.3837C12.7655 70.7071 11.7702 69.1953 10.2302 68.5333C9.60409 68.2641 8.87863 68.5532 8.60947 69.1793C8.33966 69.8054 8.62933 70.5309 9.25482 70.8007C10.964 71.5358 10.4424 74.1057 8.5755 74.1057C7.4136 74.1057 6.58176 72.972 6.93359 71.862C7.46551 70.1861 4.3855 69.071 4.3855 72.3837Z" fill="#F05A3A"/>
<path d="M82.3459 30.6631L76.3961 28.4976C76.4358 27.7881 76.4358 27.0877 76.3961 26.375L82.3453 24.2095C83.6507 23.7353 84.3224 22.2946 83.8475 20.9891L81.8268 15.4373C81.3532 14.1357 79.9081 13.4615 78.6064 13.9351L72.6573 16.1006C72.2336 15.5347 71.7773 14.9919 71.2922 14.4753L74.4581 8.99207C75.1509 7.79236 74.7382 6.25235 73.5385 5.55957L68.4218 2.60581C67.8405 2.26999 67.1637 2.18027 66.5152 2.35459C65.8672 2.52826 65.3251 2.94419 64.9899 3.52546L61.8253 9.00553C61.1376 8.84467 60.4384 8.72226 59.7335 8.63959L58.6344 2.40458C58.3934 1.04017 57.088 0.126286 55.7236 0.366612L49.9051 1.392C48.5407 1.63297 47.6262 2.93842 47.8672 4.30283L48.9662 10.5353C48.335 10.8551 47.7204 11.2101 47.1276 11.5991L42.2781 7.52961C41.2124 6.63495 39.6294 6.77723 38.7386 7.83979L34.9408 12.3656C34.0481 13.4288 34.1865 15.0124 35.2504 15.9051L40.0979 19.9727C39.8185 20.6238 39.5756 21.2916 39.3712 21.9697H33.0432C31.6577 21.9697 30.531 23.097 30.531 24.4825V30.3901C30.531 31.7756 31.6577 32.9029 33.0432 32.9029H39.3712C39.5756 33.5816 39.8185 34.2487 40.0979 34.8998L35.2504 38.9668C34.1891 39.8576 34.05 41.4457 34.9408 42.5076L38.7386 47.0334C39.6288 48.0941 41.2169 48.2331 42.2781 47.343L47.1276 43.2734C47.7204 43.6624 48.335 44.0175 48.9662 44.3373L47.8672 50.5697C47.6262 51.9374 48.5375 53.239 49.9051 53.4806L55.7236 54.506C57.0809 54.7469 58.3928 53.8382 58.6344 52.468L59.7335 46.233C60.4384 46.1503 61.1376 46.0279 61.8259 45.867L64.9899 51.3471C65.6827 52.5475 67.222 52.9602 68.4224 52.2674L73.5391 49.313C74.7388 48.6202 75.1509 47.0808 74.4581 45.8811L71.2922 40.3972C71.7773 39.8813 72.2336 39.3379 72.6573 38.772L78.6064 40.9375C79.9093 41.4111 81.3506 40.7433 81.8268 39.4353L83.8475 33.8841C84.3224 32.5786 83.6514 31.1379 82.3459 30.6631ZM81.5288 33.0394L79.5081 38.5913C79.5056 38.597 79.5017 38.6086 79.4844 38.6162C79.4678 38.6246 79.4562 38.6201 79.4505 38.6182L72.6182 36.131C72.085 35.9374 71.4883 36.1316 71.1717 36.6026C70.5148 37.5806 69.7503 38.4913 68.8986 39.309C68.489 39.7025 68.4006 40.3242 68.6845 40.8157L72.3208 47.1142C72.3336 47.136 72.3259 47.1635 72.3048 47.1757L67.1881 50.1295C67.1669 50.1423 67.1394 50.1346 67.1266 50.1134L63.4922 43.8188C63.2089 43.3273 62.6264 43.0927 62.081 43.2504C60.9531 43.5766 59.7822 43.7817 58.6004 43.8598C58.0339 43.897 57.5654 44.3168 57.4667 44.8769L56.2042 52.0393C56.1997 52.0636 56.1767 52.0796 56.1517 52.0758C56.0837 52.0636 50.2852 51.0664 50.2973 50.9978L51.5598 43.8393C51.6579 43.2805 51.3625 42.7261 50.844 42.4967C49.7673 42.0199 48.7381 41.4245 47.7851 40.7273C47.3256 40.3908 46.6976 40.4126 46.2631 40.7773L40.692 45.4518C40.6734 45.4678 40.6452 45.4652 40.6292 45.4466L36.8314 40.9208C36.8154 40.9016 36.8179 40.8734 36.8365 40.8574L42.405 36.1848C42.8408 35.8195 42.9703 35.2043 42.7191 34.6948C42.1987 33.6367 41.7917 32.5197 41.511 31.3744C41.3758 30.8226 40.881 30.4349 40.3126 30.4349H33.0432C33.0182 30.4349 32.9984 30.415 32.9984 30.3901V24.4819C32.9984 24.4575 33.0182 24.437 33.0432 24.437H40.3126C40.881 24.437 41.3752 24.0493 41.511 23.4975C41.7917 22.3529 42.1987 21.2359 42.7191 20.1778C42.9703 19.6677 42.8408 19.0524 42.405 18.6871L36.8365 14.0146C36.832 14.0114 36.8224 14.003 36.8205 13.9844C36.8192 13.9659 36.8269 13.9562 36.8314 13.9518L40.6285 9.42594C40.633 9.42145 40.6407 9.41184 40.6593 9.40992C40.6779 9.40864 40.6875 9.41633 40.692 9.42017L46.2631 14.0947C46.6982 14.4606 47.3269 14.4811 47.7851 14.1453C48.7381 13.4474 49.7673 12.852 50.844 12.3759C51.3625 12.1464 51.6579 11.5921 51.5598 11.0332L50.2973 3.87473C50.2928 3.85038 50.3095 3.82666 50.3339 3.82282L56.1523 2.79679C56.1581 2.79615 56.1703 2.79358 56.1856 2.80448C56.201 2.81473 56.2029 2.82755 56.2042 2.83332L57.4667 9.99567C57.5654 10.5552 58.0339 10.9756 58.6004 11.0127C59.7828 11.0909 60.9537 11.296 62.081 11.6222C62.6264 11.7799 63.2089 11.5453 63.4928 11.0544L67.1266 4.75913C67.1298 4.754 67.1362 4.74311 67.1541 4.73862C67.1721 4.73349 67.183 4.7399 67.1881 4.74311L72.3048 7.69687C72.3259 7.70905 72.3336 7.73661 72.3214 7.7584L68.6845 14.0569C68.4006 14.5484 68.489 15.17 68.8986 15.5635C69.7503 16.3819 70.5155 17.2926 71.1717 18.2699C71.4883 18.741 72.085 18.9345 72.6182 18.741L79.4505 16.2544C79.4735 16.2467 79.4992 16.2582 79.5081 16.2813L81.5288 21.8332C81.5307 21.8389 81.5352 21.8505 81.5269 21.8671C81.5192 21.8844 81.5077 21.8883 81.5019 21.8908L74.6683 24.3774C74.1357 24.5716 73.8038 25.1042 73.864 25.6681C73.9851 26.8031 73.9948 27.9791 73.864 29.2044C73.8038 29.7684 74.1357 30.301 74.6683 30.4952L81.5019 32.9817C81.5077 32.9843 81.5192 32.9881 81.5269 33.0054C81.5352 33.0221 81.5307 33.0336 81.5288 33.0394Z" fill="#F05A3A"/>
<path d="M67.1247 19.4061L53.2518 33.279L47.4051 27.4324C46.9232 26.9511 46.142 26.9511 45.66 27.4324C45.1781 27.9143 45.1781 28.6955 45.66 29.1775L51.6445 35.1619C52.5327 36.0501 53.9708 36.0501 54.8591 35.1619L68.8698 21.1512C69.3517 20.6693 69.3517 19.8881 68.8698 19.4061C68.3878 18.9242 67.6066 18.9242 67.1247 19.4061Z" fill="#F05A3A"/>
</g>
<defs>
<clipPath id="clip0">
<rect width="84" height="84" fill="white"/>
</clipPath>
</defs>
</svg>
