<svg width="90" height="90" viewBox="0 0 90 90" fill="none" xmlns="http://www.w3.org/2000/svg">
<path d="M86.9871 64.5356H86.8899V56.6631C86.8899 37.0157 73.1638 19.9867 54.1004 15.766C53.9991 14.7502 53.5642 13.8052 52.8416 13.0572C51.9731 12.1583 50.8064 11.6631 49.5563 11.6631H40.4437C39.1936 11.6631 38.0269 12.1583 37.1584 13.0572C36.4359 13.8052 36.0009 14.7502 35.8996 15.766C16.8362 19.9867 3.1101 37.0157 3.1101 56.6631V64.5356H3.01289C1.35141 64.5356 0 65.8872 0 67.5485V69.531C0 70.8428 0.829863 71.9954 2.0649 72.3992C13.7756 76.2282 29.0238 78.3369 45 78.3369C60.9762 78.3369 76.2244 76.2282 87.9351 72.3992C89.1701 71.9954 90 70.8428 90 69.531V67.5485C90 65.8872 88.6484 64.5356 86.9871 64.5356ZM39.2555 15.0831C39.5696 14.7581 39.9916 14.5788 40.4437 14.5788H49.5561C50.0082 14.5788 50.4302 14.7577 50.7444 15.0831C51.0585 15.4083 51.223 15.8363 51.2074 16.2881L49.8669 55.1649C49.8359 56.0596 49.1106 56.7605 48.2156 56.7605H41.7846C40.8895 56.7605 40.1643 56.0596 40.1333 55.1651L38.7928 16.2882C38.777 15.8361 38.9413 15.4083 39.2555 15.0831ZM87.0843 69.5312C87.0843 69.5704 87.0673 69.6155 87.0291 69.628C75.603 73.3637 60.6767 75.4212 45 75.4212C29.3233 75.4212 14.397 73.3637 2.97105 69.6277C2.93291 69.6152 2.91586 69.5702 2.91586 69.531V67.5485C2.91586 67.4949 2.95945 67.4513 3.01307 67.4513H58.9957C59.8008 67.4513 60.4536 66.7986 60.4536 65.9934C60.4536 65.1883 59.801 64.5354 58.9957 64.5354H6.02596V56.6631C6.02596 42.0108 14.2309 28.9248 26.6198 22.2852L29.7831 44.4299C29.8872 45.1572 30.5107 45.6819 31.2247 45.6819C31.2933 45.6819 31.3627 45.6769 31.4327 45.6671C32.2298 45.5532 32.7837 44.8147 32.6698 44.0177L29.3739 20.945C31.4729 20.0261 33.6741 19.2862 35.9599 18.7441L37.2194 55.2658C37.3046 57.7389 39.31 59.6763 41.7848 59.6763H48.2157C50.6904 59.6763 52.6957 57.7389 52.7811 55.2658L54.0406 18.7443C56.3263 19.2865 58.5276 20.0264 60.6266 20.9452L57.3307 44.0179C57.217 44.8151 57.7709 45.5534 58.5679 45.6673C58.6378 45.6771 58.7072 45.682 58.7758 45.682C59.4896 45.682 60.1133 45.1571 60.2174 44.4301L63.3807 22.2854C75.7696 28.9248 83.9746 42.0107 83.9746 56.6631V64.5356H74.5465C73.7415 64.5356 73.0886 65.1883 73.0886 65.9936C73.0886 66.7986 73.7413 67.4515 74.5465 67.4515H86.9875C87.0411 67.4515 87.0847 67.4951 87.0847 67.5487V69.5312H87.0843Z" fill="#F05A3A"/>
<path d="M68.3263 64.5356H65.2161C64.411 64.5356 63.7581 65.1883 63.7581 65.9936C63.7581 66.7987 64.4108 67.4515 65.2161 67.4515H68.3263C69.1314 67.4515 69.7843 66.7988 69.7843 65.9936C69.7843 65.1883 69.1316 64.5356 68.3263 64.5356Z" fill="#F05A3A"/>
<path d="M34.003 53.3467L33.5584 50.2358C33.4445 49.4386 32.7066 48.8847 31.909 48.9986C31.1119 49.1125 30.558 49.851 30.6719 50.648L31.1163 53.7589C31.2203 54.4861 31.8438 55.0108 32.5579 55.0108C32.6264 55.0108 32.6958 55.0059 32.7658 54.9961C33.563 54.8822 34.1169 54.1437 34.003 53.3467Z" fill="#F05A3A"/>
<path d="M58.0911 48.9986C57.294 48.8846 56.5557 49.4388 56.4418 50.2358L55.9974 53.3468C55.8837 54.1439 56.4376 54.8822 57.2345 54.9961C57.3043 55.006 57.3739 55.0109 57.4425 55.0109C58.1563 55.0109 58.78 54.486 58.8841 53.759L59.3284 50.648C59.442 49.851 58.8881 49.1126 58.0911 48.9986Z" fill="#F05A3A"/>
</svg>
