<svg width="92" height="92" viewBox="0 0 92 92" fill="none" xmlns="http://www.w3.org/2000/svg">
<g clip-path="url(#clip0)">
<path d="M0.826972 33.9314L25.29 45.4139C25.536 45.5294 25.8111 45.5674 26.0794 45.524L35.009 44.0656C40.1121 43.2325 45.3276 44.9306 48.9612 48.6089L56.4343 56.174C56.8922 56.6375 57.1217 57.2509 57.0804 57.9012C57.0391 58.5515 56.7342 59.131 56.2213 59.5331C55.4422 60.1437 54.3342 60.1706 53.5268 59.5985L46.2405 54.4363C45.2064 53.7036 43.829 53.7869 42.8906 54.6383L37.5659 59.4701C37.0151 59.9701 36.9736 60.8218 37.4736 61.3726C37.9734 61.9234 38.825 61.9649 39.3761 61.4649L44.6831 56.6342L51.9694 61.7964C52.8212 62.3998 53.8251 62.6998 54.8279 62.6998C55.9122 62.6998 56.9951 62.3492 57.8832 61.653C58.9925 60.7834 59.6796 59.478 59.7688 58.0715C59.8581 56.665 59.3411 55.2834 58.3506 54.2808L52.4257 48.2831C55.559 47.5057 58.8757 47.6332 61.9537 48.679L65.1111 49.752C65.4556 49.8689 65.8135 49.9267 66.1705 49.9267C66.7308 49.9267 67.2884 49.7843 67.7864 49.5045C67.7927 49.5009 67.799 49.4973 67.8051 49.4937L91.085 35.9174C91.7276 35.5426 91.9447 34.7179 91.5701 34.0754C91.1953 33.4326 90.3704 33.2159 89.728 33.5903L66.4602 47.1597C66.3126 47.2403 66.1369 47.2552 65.9778 47.2013L62.8203 46.1285C58.7484 44.7449 54.3152 44.7453 50.2502 46.1128C46.0438 42.2354 40.2504 40.4807 34.5747 41.4072L26.057 42.7984L1.97165 31.4929C1.29821 31.1769 0.496175 31.4665 0.180104 32.1398C-0.135967 32.8133 0.153526 33.6153 0.826972 33.9314Z" fill="#F05A3A"/>
<path d="M91.811 59.1764C91.4847 58.5079 90.6778 58.231 90.0095 58.5573L78.1592 64.3459C77.9566 64.4449 77.7821 64.593 77.6517 64.7769L76.6983 66.1211C75.5518 67.7376 74.0675 69.078 72.3559 70.0544C72.2228 69.8387 72.0714 69.6308 71.8999 69.4334L69.5461 66.7247C67.8316 64.7518 64.8318 64.5415 62.8587 66.2562L62.6649 66.4246C61.6621 67.296 61.1158 68.4996 61.045 69.7315C61.0244 69.7297 61.0037 69.727 60.9831 69.7256C59.7204 69.6371 58.4982 70.0456 57.5424 70.876L57.3483 71.0446C56.3449 71.9165 55.7984 73.121 55.7282 74.3537C54.4979 74.2513 53.2291 74.6242 52.2259 75.496L52.0316 75.6648C51.0283 76.5367 50.482 77.7412 50.4116 78.9737C49.1811 78.8714 47.9121 79.2444 46.9088 80.1164L46.715 80.2849C45.7592 81.1155 45.1842 82.2682 45.0955 83.5314C45.007 84.7945 45.4157 86.0164 46.2461 86.9721L47.3836 88.2811L46.9296 88.6827C46.9213 88.6902 46.9129 88.6976 46.9048 88.7051C46.0277 89.521 44.5749 89.5003 43.7195 88.6642C42.9863 87.8578 42.9633 86.63 43.6694 85.798C44.1308 85.2544 44.0886 84.4452 43.573 83.9526C43.0574 83.4601 42.2473 83.4546 41.725 83.9403L41.5805 84.0749C40.7032 84.8909 39.2502 84.8699 38.395 84.0339C37.6515 83.2166 37.6357 81.9794 38.3616 81.1458C38.8321 80.6054 38.7972 79.7914 38.2824 79.2932C37.7677 78.7952 36.9527 78.7873 36.4281 79.2752L36.3879 79.3126C35.5106 80.1285 34.0576 80.1078 33.2024 79.2717C32.4676 78.4637 32.4457 77.2344 33.155 76.402C33.5711 75.9138 33.5849 75.1995 33.1882 74.6954C32.7914 74.1913 32.094 74.0373 31.5217 74.3268C30.6349 74.7757 29.5583 74.5661 28.9033 73.8176C28.1412 72.9466 28.2378 71.5703 29.1168 70.7424L30.5652 69.4596L35.0834 65.3597C35.6342 64.8597 35.6757 64.0079 35.1757 63.4571C34.6758 62.9062 33.824 62.8649 33.2732 63.3648L28.7672 67.4538L27.3172 68.738C27.3091 68.7454 27.3009 68.7528 27.293 68.7601C26.5502 69.451 26.0648 70.3256 25.8432 71.2517L25.8331 71.246C23.3636 69.8464 21.2097 68.015 19.4309 65.8029L18.663 64.8479C18.5391 64.6938 18.3828 64.5688 18.2052 64.4819L1.99132 56.5501C1.32308 56.2236 0.51638 56.5 0.189534 57.1681C-0.137312 57.8363 0.13943 58.643 0.807489 58.9698L16.7518 66.7696L17.3317 67.4908C19.3248 69.9693 21.738 72.0212 24.5049 73.5894L26.183 74.5405C26.3631 74.9136 26.5931 75.268 26.8763 75.5914C27.6952 76.5272 28.8089 77.0864 29.9785 77.2226C29.8117 78.6032 30.2373 80.0388 31.2467 81.1241C31.2579 81.1359 31.2692 81.1476 31.2805 81.1591C32.3217 82.2003 33.7406 82.6829 35.1314 82.5976C35.1382 83.7791 35.5755 84.9577 36.4391 85.8862C36.4502 85.898 36.4615 85.9097 36.4729 85.9212C37.5488 86.9971 39.0282 87.4762 40.4627 87.3494C40.4974 88.4921 40.9327 89.6233 41.7633 90.5164C41.7744 90.5283 41.7857 90.5399 41.797 90.5514C42.7605 91.5149 44.0478 91.9994 45.336 91.9994C46.5564 91.9994 47.778 91.5643 48.7258 90.6894L49.2064 90.2643C49.9544 90.8686 50.8667 91.231 51.8461 91.2996C51.9594 91.3075 52.0722 91.3114 52.1848 91.3114C53.3261 91.3114 54.4169 90.905 55.2866 90.1492L55.4809 89.9804C56.4845 89.1083 57.0308 87.9036 57.101 86.6709C57.2328 86.6819 57.365 86.6889 57.4975 86.6889C58.6003 86.6889 59.708 86.3073 60.6038 85.5288L60.7976 85.3603C61.8011 84.4883 62.3474 83.2838 62.4176 82.0509C62.5494 82.0619 62.6816 82.0689 62.8141 82.0689C63.917 82.0689 65.0247 81.6873 65.9204 80.9088L66.1142 80.7403C67.07 79.9097 67.645 78.757 67.7337 77.4938C67.7352 77.4727 67.7353 77.4519 67.7366 77.4309C67.8677 77.4417 67.9993 77.4487 68.131 77.4487C69.2338 77.4487 70.3413 77.0671 71.2369 76.2887L71.431 76.1201C72.4543 75.2308 73.002 73.9958 73.0545 72.7374C75.3751 71.5471 77.3812 69.8141 78.8957 67.679L79.6503 66.6152L91.1919 60.9772C91.8604 60.6513 92.1376 59.8448 91.811 59.1764ZM53.7147 87.9474L53.5204 88.1163C53.1079 88.4747 52.5817 88.6512 52.035 88.613C51.4898 88.5747 50.992 88.3264 50.6336 87.9139L48.2797 85.2052C47.9211 84.7927 47.7447 84.265 47.783 83.7198C47.8212 83.1746 48.0696 82.6768 48.4823 82.3181L48.6761 82.1497C49.0629 81.8135 49.541 81.6488 50.017 81.6488C50.5894 81.6488 51.1589 81.8871 51.5629 82.3521L53.9167 85.061C54.6568 85.9124 54.5661 87.2074 53.7147 87.9474ZM59.0308 83.3276L58.837 83.496C57.9854 84.2361 56.6903 84.1454 55.95 83.2937L53.5962 80.5848C52.8561 79.733 52.9468 78.438 53.7982 77.6981L53.9925 77.5293C54.8443 76.7892 56.1393 76.8799 56.8796 77.7317L59.2334 80.4404C59.9735 81.2922 59.8828 82.5873 59.0308 83.3276ZM65.0468 77.3059C65.0085 77.8511 64.7601 78.3489 64.3475 78.7076L64.1537 78.876C63.3019 79.6161 62.0069 79.5254 61.2667 78.6736L58.9128 75.9648C58.1726 75.113 58.2634 73.8178 59.115 73.0777L59.3092 72.9091C59.6849 72.5828 60.1556 72.4073 60.6485 72.4073C60.697 72.4073 60.7459 72.409 60.7947 72.4124C61.3399 72.4506 61.8377 72.699 62.1962 73.1115L64.55 75.8202C64.9087 76.2331 65.085 76.7605 65.0468 77.3059ZM69.6644 74.0872L69.4703 74.2558C68.6187 74.9959 67.3235 74.9052 66.5833 74.0534L64.2295 71.3447C63.8708 70.9322 63.6945 70.4046 63.7327 69.8594C63.771 69.3142 64.0192 68.8163 64.432 68.4577L64.6258 68.2893C65.4776 67.5492 66.7728 67.6399 67.5128 68.4917L69.8667 71.2003C70.6069 72.0519 70.516 73.3471 69.6644 74.0872Z" fill="#F05A3A"/>
<path d="M41.1287 37.6906L44.8567 39.0578C45.199 39.1833 45.5587 39.2461 45.9186 39.2461C46.2783 39.2461 46.638 39.1833 46.9805 39.0578L50.7083 37.6906C54.0824 36.4532 57.0962 34.3539 59.4238 31.6193C61.7254 28.9153 63.3097 25.649 64.0052 22.1735C64.1512 21.444 63.6784 20.7344 62.9489 20.5884C62.2187 20.4421 61.5097 20.9155 61.3639 21.6448C60.1289 27.815 55.6906 32.9942 49.781 35.1613L46.0529 36.5285C45.9662 36.5603 45.8708 36.5603 45.7841 36.5285L42.0561 35.1613C34.9156 32.5427 30.1181 25.6734 30.1181 18.0679V6.36147C30.1181 6.04342 30.3447 5.76848 30.6569 5.70778L46.0016 2.71929L61.1814 5.7049C61.4928 5.76614 61.7189 6.04109 61.7189 6.35841V16.1683C61.7189 16.9121 62.322 17.5152 63.0658 17.5152C63.8097 17.5152 64.4127 16.9121 64.4127 16.1683V6.35824C64.4127 4.75705 63.2723 3.37065 61.7013 3.06176L46.2627 0.0253223C46.0919 -0.00826022 45.9163 -0.00843981 45.7453 0.0247836L30.1418 3.06355C28.567 3.37029 27.4243 4.75723 27.4243 6.36147V18.0683C27.4243 26.7989 32.9317 34.6847 41.1287 37.6906Z" fill="#F05A3A"/>
<path d="M46.2577 5.51514C46.0869 5.48137 45.9112 5.48137 45.7403 5.5146L33.9013 7.82012C33.2686 7.94331 32.8119 8.49752 32.8119 9.14223V18.0682C32.8119 24.5484 36.8996 30.4012 42.9836 32.6324L45.4547 33.5386C45.6043 33.5936 45.7615 33.6209 45.9184 33.6209C46.0756 33.6209 46.2325 33.5934 46.3821 33.5386L48.8534 32.6324C54.9374 30.4014 59.0251 24.5484 59.0251 18.0682V9.13397C59.0251 8.49033 58.5697 7.93667 57.9381 7.8124L46.2577 5.51514ZM56.3313 18.0682C56.3313 23.4231 52.9535 28.2597 47.926 30.1033L45.9186 30.8396L43.9112 30.1035C38.8835 28.2597 35.5057 23.4233 35.5057 18.0684V10.2522L45.9965 8.20928L56.3313 10.2418V18.0682Z" fill="#F05A3A"/>
<path d="M42.4622 20.564C41.9202 20.0543 41.0681 20.0807 40.5582 20.6225C40.0487 21.1645 40.075 22.0168 40.6168 22.5265L42.7908 24.5709C43.0414 24.8065 43.3716 24.9365 43.7134 24.9365C43.7419 24.9365 43.7707 24.9356 43.7994 24.9338C44.1713 24.9101 44.5167 24.7332 44.7535 24.4455L51.7953 15.8893C52.2679 15.315 52.1855 14.4661 51.6112 13.9934C51.0369 13.5208 50.188 13.6032 49.7153 14.1775L43.5878 21.6226L42.4622 20.564Z" fill="#F05A3A"/>
</g>
<defs>
<clipPath id="clip0">
<rect width="92" height="92" fill="white"/>
</clipPath>
</defs>
</svg>
